<svg xmlns="http://www.w3.org/2000/svg" viewBox="0 0 812 468" role="img" aria-labelledby="title desc">
  <title id="title">Project dashboard illustration</title>
  <desc id="desc">A person working beside a large monitor with task cards and status icons.</desc>
  <rect width="812" height="468" fill="#60b7e3"/>
  <ellipse cx="254" cy="220" rx="180" ry="174" fill="#b8d2ec"/>
  <ellipse cx="570" cy="220" rx="178" ry="162" fill="#b8d2ec"/>
  <rect x="285" y="120" width="185" height="232" rx="9" fill="#2e2d84"/>
  <rect x="302" y="206" width="122" height="146" rx="6" fill="#f8fbff"/>
  <rect x="439" y="189" width="154" height="117" rx="7" fill="#f8fbff"/>
  <rect x="322" y="77" width="74" height="97" rx="7" fill="#2e2d84"/>
  <rect x="153" y="148" width="116" height="151" rx="7" fill="#f8fbff"/>
  <circle cx="171" cy="179" r="16" fill="#4d44b8"/>
  <rect x="196" y="164" width="50" height="8" rx="4" fill="#1d2351"/>
  <rect x="196" y="181" width="74" height="6" rx="3" fill="#cfd8e8"/>
  <rect x="171" y="204" width="80" height="6" rx="3" fill="#dde5f1"/>
  <rect x="171" y="221" width="95" height="6" rx="3" fill="#dde5f1"/>
  <rect x="171" y="238" width="86" height="6" rx="3" fill="#dde5f1"/>
  <rect x="171" y="266" width="97" height="19" rx="6" fill="#f7a421"/>
  <rect x="415" y="97" width="52" height="58" rx="5" fill="#f8fbff"/>
  <path d="M429 121v-8c0-8 7-15 15-15s15 7 15 15v8" fill="none" stroke="#4d44b8" stroke-width="7" stroke-linecap="round"/>
  <rect x="426" y="119" width="35" height="27" rx="4" fill="#4d44b8"/>
  <circle cx="444" cy="131" r="4" fill="#f8fbff"/>
  <rect x="490" y="96" width="56" height="59" rx="5" fill="#f8fbff"/>
  <rect x="501" y="87" width="6" height="20" rx="2" fill="#f05b27"/>
  <rect x="529" y="87" width="6" height="20" rx="2" fill="#f05b27"/>
  <rect x="502" y="119" width="34" height="5" rx="2" fill="#c8d2e4"/>
  <rect x="502" y="132" width="26" height="5" rx="2" fill="#c8d2e4"/>
  <rect x="575" y="101" width="50" height="62" rx="5" fill="#2e2d84"/>
  <path d="M600 119c12 0 21 9 21 21 0 8-4 15-10 18l2 9-13-7-13 7 2-9c-6-4-10-10-10-18 0-12 9-21 21-21z" fill="#f8fbff"/>
  <path d="M343 117c3-16 25-16 29-1 12 0 21 8 21 19s-9 19-20 19h-63c-11 0-20-8-20-19s9-19 20-19c3-14 20-21 33-9z" fill="#f8fbff"/>
  <path d="M326 239l9 9 18-25" fill="none" stroke="#f7b532" stroke-width="5" stroke-linecap="round" stroke-linejoin="round"/>
  <path d="M326 267l9 9 18-25" fill="none" stroke="#f7b532" stroke-width="5" stroke-linecap="round" stroke-linejoin="round"/>
  <path d="M326 295l9 9 18-25" fill="none" stroke="#f7b532" stroke-width="5" stroke-linecap="round" stroke-linejoin="round"/>
  <path d="M326 323l9 9 18-25" fill="none" stroke="#f7b532" stroke-width="5" stroke-linecap="round" stroke-linejoin="round"/>
  <path d="M465 219l10 9 20-25" fill="none" stroke="#2e2d84" stroke-width="5" stroke-linecap="round" stroke-linejoin="round"/>
  <path d="M465 253l10 9 20-25" fill="none" stroke="#2e2d84" stroke-width="5" stroke-linecap="round" stroke-linejoin="round"/>
  <rect x="513" y="215" width="60" height="7" rx="3" fill="#cfd8e8"/>
  <rect x="513" y="250" width="68" height="7" rx="3" fill="#cfd8e8"/>
  <rect x="412" y="276" width="108" height="34" rx="7" fill="#f7a421"/>
  <path d="M451 310l11 28 4-31z" fill="#d48618"/>
  <path d="M309 353h221l30 57H277z" fill="#d8e5f3"/>
  <rect x="230" y="409" width="472" height="8" rx="4" fill="#16245b"/>
  <rect x="344" y="392" width="142" height="19" rx="4" fill="#d8e5f3"/>
  <path d="M586 413c28-84 47-155 95-154 44 1 51 54 22 154z" fill="#31275d"/>
  <path d="M646 264c-22 18-35 57-48 107h88c2-38 5-84-5-111-11-8-22-9-35 4z" fill="#ffb12e"/>
  <path d="M610 347c-24 21-55 39-96 41l-106 4c-17 1-16 22 1 23h155c35-5 64-21 87-48z" fill="#f3a27d"/>
  <path d="M642 231c19-32 69-14 64 21-3 24-30 40-53 30-22-10-25-34-11-51z" fill="#f3a27d"/>
  <path d="M625 255c-10-31 13-58 45-51 35 8 45 43 29 72-6-17-18-25-37-24-20 1-30-5-37-17z" fill="#231b5a"/>
  <path d="M651 280c-6 22-14 37-30 49l47 1c1-18-1-34-7-48z" fill="#f3a27d"/>
  <path d="M161 405c-20-29-26-58-18-88 30 16 44 45 42 83z" fill="#4d44b8"/>
  <path d="M189 405c-1-48 18-83 56-107 10 45-4 79-40 105z" fill="#2e2d84"/>
  <path d="M202 407c18-29 41-48 70-55-2 36-22 57-58 65z" fill="#6b62c9"/>
  <rect x="151" y="399" width="86" height="12" rx="6" fill="#f8fbff"/>
</svg>
